<?xml version="1.0" encoding="UTF-8"?>
<svg id="Layer_1" data-name="Layer 1" xmlns="http://www.w3.org/2000/svg" xmlns:xlink="http://www.w3.org/1999/xlink" viewBox="0 0 365.28 82.3">
  <defs>
    <style>
      .cls-1 {
        fill: url(#linear-gradient-2);
      }

      .cls-2 {
        fill: #231f20;
      }

      .cls-3 {
        fill: url(#linear-gradient-4);
      }

      .cls-4 {
        fill: #f47c20;
      }

      .cls-5 {
        fill: url(#linear-gradient-3);
      }

      .cls-6 {
        fill: #f4752d;
      }

      .cls-7 {
        fill: url(#linear-gradient);
      }
    </style>
    <linearGradient id="linear-gradient" x1="-6.74" y1="56.92" x2="46.19" y2="4.76" gradientUnits="userSpaceOnUse">
      <stop offset="0" stop-color="#e11a51"/>
      <stop offset=".4" stop-color="#e73b43"/>
      <stop offset="1" stop-color="#f4752d"/>
    </linearGradient>
    <linearGradient id="linear-gradient-2" x1="30.35" y1="42.62" x2="112.92" y2="42.62" gradientUnits="userSpaceOnUse">
      <stop offset="0" stop-color="#e11a51"/>
      <stop offset=".51" stop-color="#f47a20"/>
      <stop offset="1" stop-color="#e11a51"/>
    </linearGradient>
    <linearGradient id="linear-gradient-3" x1="144.29" y1="28.52" x2="96.8" y2="81.37" gradientUnits="userSpaceOnUse">
      <stop offset="0" stop-color="#e11a51"/>
      <stop offset="1" stop-color="#f47a20"/>
    </linearGradient>
    <linearGradient id="linear-gradient-4" x1="6.07" y1="71.67" x2="158.07" y2="-.61" gradientUnits="userSpaceOnUse">
      <stop offset="0" stop-color="#fff"/>
      <stop offset="0" stop-color="#fff"/>
      <stop offset=".07" stop-color="#fdfdfd"/>
      <stop offset=".09" stop-color="#f6f6f6"/>
      <stop offset=".11" stop-color="#eaeaea"/>
      <stop offset=".12" stop-color="#dadad9"/>
      <stop offset=".13" stop-color="#c4c4c3"/>
      <stop offset=".14" stop-color="#afafae"/>
      <stop offset=".38" stop-color="#e0dfde"/>
      <stop offset=".41" stop-color="#e9e8e7"/>
      <stop offset=".44" stop-color="#dfdedd"/>
      <stop offset=".49" stop-color="#d8d7d6"/>
      <stop offset=".59" stop-color="#d6d5d5"/>
      <stop offset=".7" stop-color="#fff"/>
      <stop offset=".88" stop-color="#b4b4b5"/>
    </linearGradient>
  </defs>
  <g>
    <path class="cls-2" d="M162,55.67V3.42h9.78v52.24h-9.78Z"/>
    <path class="cls-2" d="M219.62,18.8l-15.67,37.02h-9.85l-15.75-37.02h9.93l5.08,12.16,5.67,15.52,5.6-15.37,5.08-12.31h9.93Z"/>
    <path class="cls-2" d="M231.26,40.52c.6,4.55,4.55,7.84,10.97,7.84,3.36,0,7.76-1.27,9.85-3.43l5.82,5.75c-3.88,4.03-10.22,5.97-15.82,5.97-12.69,0-20.23-7.84-20.23-19.63s7.61-19.26,19.55-19.26,20,7.61,18.58,22.76h-28.73ZM251.26,32.98c-.6-4.78-4.33-7.17-9.55-7.17-4.93,0-8.96,2.39-10.3,7.17h19.85Z"/>
    <path class="cls-2" d="M288.65,18.87h10.9v.3l-12.09,17.84,12.84,18.43v.22h-10.9l-7.99-12.31-7.99,12.31h-10.9v-.22l12.84-18.43-12.09-17.84v-.3h10.89l7.24,12.46,7.24-12.46Z"/>
    <path class="cls-2" d="M315.96,8.5c0,7.09-10.75,7.09-10.75,0s10.75-7.09,10.75,0ZM306.04,18.72v36.94h9.1V18.72h-9.1Z"/>
    <path class="cls-2" d="M354.02,18.87h8.73v36.79h-8.58l-.45-5.37c-2.09,4.33-7.84,6.42-11.94,6.49-10.89.07-18.96-6.64-18.96-19.55s8.43-19.33,19.18-19.26c4.93,0,9.63,2.31,11.72,5.97l.3-5.08ZM331.93,37.23c0,7.02,4.85,11.19,10.89,11.19,14.33,0,14.33-22.31,0-22.31-6.04,0-10.89,4.1-10.89,11.12Z"/>
    <path class="cls-2" d="M164.3,76.09v4.23h-2.71v-14.37c2.24,0,4.54-.02,6.78-.02,7.06,0,7.09,10.1,0,10.16h-4.07ZM164.3,73.6h4.07c3.47,0,3.45-5.09,0-5.09h-4.07v5.09Z"/>
    <path class="cls-2" d="M180.61,65.94v5.63c.9-1.17,2.01-1.52,3.16-1.52,2.88,0,4.15,1.95,4.15,4.93v5.34h-2.51v-5.32c0-1.85-.96-2.63-2.3-2.63-1.48,0-2.51,1.25-2.51,2.77v5.18h-2.51v-14.37h2.51Z"/>
    <path class="cls-2" d="M201.05,70.19h2.4v10.12h-2.36l-.12-1.48c-.57,1.19-2.15,1.76-3.28,1.78-3,.02-5.22-1.83-5.22-5.38s2.32-5.32,5.28-5.3c1.36,0,2.65.64,3.22,1.64l.08-1.4ZM194.97,75.24c0,1.93,1.33,3.08,3,3.08,3.94,0,3.94-6.14,0-6.14-1.67,0-3,1.13-3,3.06Z"/>
    <path class="cls-2" d="M211.06,70.19l.19,1.17c.78-1.25,1.83-1.44,2.85-1.44s2.05.41,2.61.97l-1.13,2.18c-.51-.43-.98-.66-1.81-.66-1.31,0-2.53.7-2.53,2.57v5.34h-2.51v-10.12h2.32Z"/>
    <path class="cls-2" d="M227.34,80.32v-5.42c0-1.33-.7-2.55-2.07-2.55s-2.16,1.21-2.16,2.55v5.42h-2.51v-10.15h2.32l.19,1.23c.53-1.03,1.7-1.4,2.67-1.4,1.21,0,2.42.49,3,1.89.9-1.44,2.07-1.85,3.39-1.85,2.88,0,4.29,1.77,4.29,4.8v5.46h-2.51v-5.46c0-1.33-.55-2.46-1.91-2.46s-2.2,1.17-2.2,2.5v5.42h-2.51Z"/>
    <path class="cls-2" d="M249.59,70.19h2.4v10.12h-2.36l-.12-1.48c-.57,1.19-2.15,1.76-3.28,1.78-3,.02-5.22-1.83-5.22-5.38s2.32-5.32,5.28-5.3c1.36,0,2.65.64,3.22,1.64l.08-1.4ZM243.51,75.24c0,1.93,1.33,3.08,3,3.08,3.94,0,3.94-6.14,0-6.14-1.67,0-3,1.13-3,3.06Z"/>
    <path class="cls-2" d="M265.96,79.02c-1.17,1.15-2.4,1.6-3.9,1.6-2.94,0-5.38-1.77-5.38-5.36s2.44-5.36,5.38-5.36c1.44,0,2.55.41,3.65,1.5l-1.58,1.66c-.6-.53-1.34-.8-2.03-.8-1.68,0-2.92,1.23-2.92,3,0,1.93,1.31,2.96,2.88,2.96.8,0,1.6-.23,2.22-.84l1.68,1.64Z"/>
    <path class="cls-2" d="M271.96,76.15c.16,1.25,1.25,2.16,3.02,2.16.92,0,2.14-.35,2.71-.94l1.6,1.58c-1.07,1.11-2.81,1.64-4.35,1.64-3.49,0-5.56-2.16-5.56-5.4s2.09-5.3,5.38-5.3,5.5,2.1,5.11,6.26h-7.91ZM277.46,74.07c-.16-1.31-1.19-1.97-2.63-1.97-1.36,0-2.46.66-2.83,1.97h5.46Z"/>
    <path class="cls-2" d="M286.81,70.19v5.3c0,1.54.84,2.71,2.44,2.71s2.59-1.29,2.59-2.83v-5.17h2.48v10.15h-2.24l-.16-1.38c-1.05,1.03-2.01,1.52-3.43,1.52-2.42,0-4.19-1.83-4.19-4.97v-5.32h2.51Z"/>
    <path class="cls-2" d="M303.24,67.34v2.88h2.79v2.16h-2.81v4.37c0,.97.53,1.44,1.31,1.44.39,0,.84-.12,1.21-.31l.7,2.14c-.72.29-1.31.41-2.07.43-2.2.08-3.64-1.17-3.64-3.7v-4.37h-1.89v-2.16h1.89v-2.61l2.51-.27Z"/>
    <path class="cls-2" d="M313.43,67.34c0,1.95-2.96,1.95-2.96,0s2.96-1.95,2.96,0ZM310.7,70.15v10.17h2.51v-10.17h-2.51Z"/>
    <path class="cls-2" d="M327.17,79.02c-1.17,1.15-2.4,1.6-3.9,1.6-2.94,0-5.38-1.77-5.38-5.36s2.44-5.36,5.38-5.36c1.44,0,2.55.41,3.65,1.5l-1.58,1.66c-.6-.53-1.34-.8-2.03-.8-1.68,0-2.92,1.23-2.92,3,0,1.93,1.31,2.96,2.88,2.96.8,0,1.6-.23,2.22-.84l1.68,1.64Z"/>
    <path class="cls-2" d="M339.17,70.19h2.4v10.12h-2.36l-.12-1.48c-.57,1.19-2.15,1.76-3.29,1.78-3,.02-5.22-1.83-5.22-5.38s2.32-5.32,5.28-5.3c1.36,0,2.65.64,3.22,1.64l.08-1.4ZM333.09,75.24c0,1.93,1.33,3.08,3,3.08,3.94,0,3.94-6.14,0-6.14-1.67,0-3,1.13-3,3.06Z"/>
    <path class="cls-2" d="M349.4,65.96v14.36h-2.48v-14.36h2.48Z"/>
    <path class="cls-2" d="M361.11,72.88c-.72-.68-1.54-.9-2.51-.9-1.19,0-1.85.37-1.85,1.01s.6,1.03,1.89,1.11c1.91.12,4.33.55,4.33,3.25,0,1.79-1.46,3.33-4.35,3.33-1.6,0-3.2-.27-4.68-1.81l1.23-1.79c.97,1.01,2.36,1.4,3.49,1.42.94.02,1.83-.37,1.83-1.11,0-.7-.58-1.09-2.01-1.17-1.91-.15-4.19-.84-4.19-3.14s2.42-3.16,4.27-3.16c1.58,0,2.77.31,3.94,1.34l-1.4,1.64Z"/>
  </g>
  <g>
    <path class="cls-7" d="M3.24,42.67c-.05-7.78-.11-15.56-.16-23.34,0-.52.25-9.05,9.23-13.56,6.21-3.12,14.14-3.08,20.45.11,9.08,5.63,18.74,10.89,27.82,16.52-1.97-.91-6.63-2.14-12.12-2.26-6.27-.14-10.92,1.71-12.91,2.62-1.56.81-3.74,2.25-4.67,4.54-.49,1.2-.4,2.08-.39,4.67,0,1.51-.02,3.75-.17,6.52v14.18c-2.15,4.61-6.58,8.09-11.44,8.46-7.22.56-15.74-5.7-15.68-15.03.02-1.14.04-2.29.06-3.43Z"/>
    <path class="cls-1" d="M82.05,63.02c-17.19-10.54-34.37-21.09-51.56-31.63-.2-1.14-.31-2.96.63-4.85,3.13-6.3,14.63-6.89,16.07-6.95,5.99-.24,10.73,1.54,13.39,2.81,17.44,10.44,34.88,20.87,52.32,31.31.25,4.21-1.65,6.64-2.49,7.56-4.49,4.9-13.28,4.48-16.94,4.31-5-.24-8.92-1.52-11.32-2.5-.03-.01-.06-.03-.09-.05Z"/>
    <path class="cls-5" d="M110.64,51.41v-20.43c1.35-.73,3.69-1.79,6.88-2.27.89-.13,2.43-.3,6.34-.06,5.77.36,8.66.54,10.3,1.45,3.83,2.12,3.68,7.35,3.59,10.92-.15,6.69-.21,15.3,0,27.08-.19,1.1-1.14,5.58-6.08,8.99-5.32,3.66-11.38,3.4-12.62,3.32-1.73.02-3.82-.1-6.12-.55-5.9-1.15-9.89-3.83-11.91-5.42-6.41-3.86-12.82-7.71-19.23-11.57,4.18.84,7.67,1.12,10.22,1.22,2.26.08,3.94.02,5.41-.11,4.26-.36,6.63-.6,8.96-2.57,1.92-1.62,2.85-3.6,3.07-4.09,1.1-2.44,1.21-4.76,1.19-5.9Z"/>
    <path class="cls-4" d="M137.9,20.12c0,5.96-.15,11.87-.15,17.83,0,0,0,0,0-.02-.08-3.67-.94-7.34-2.51-10.68-1.58-3.33-3.92-6.38-7.05-8.44-3.13-2.09-7-2.83-10.7-2.58-3.74.23-7.34,1.43-10.67,3.05-3.35,1.6-6.48,3.59-9.6,5.55l-9.36,5.87c-6.24,3.92-12.5,7.8-18.71,11.76-6.17,4.01-12.59,7.58-19.05,11.12-3.23,1.77-6.46,3.53-9.68,5.34-1.6.91-3.2,1.82-4.79,2.77-1.6.94-3.15,1.92-4.77,2.74-1.62.82-3.32,1.51-5.06,2.01-1.76.48-3.57.75-5.38.75-3.6-.06-7.41-.56-10.37-2.72-1.47-1.06-2.63-2.5-3.32-4.19-.7-1.68-1.12-3.49-1.54-5.28-.86-3.58-1.57-7.2-1.94-10.86.62,5.68,5.35,10.41,11.73,11.84,8.42,1.89,14.98-3.04,15.33-3.31,1.16-.72,2.34-1.43,3.5-2.15,22-13.47,44.46-26.43,66.39-39.96,5.1-3.15,12.2-7.56,20.87-6.65,5.34.56,9.31,2.94,11.6,4.6,1.12,1.03,2.67,2.72,3.8,5.1,1.28,2.69,1.45,5.07,1.42,6.51Z"/>
    <path class="cls-6" d="M137.74,37.93c-.47-.95-3.1-6.14-10.33-8.39-8.49-2.63-15.84,1.12-16.61,1.53-18.12,10.95-36.23,21.9-54.34,32.85l-20.12,12.9c-1.48.87-7.72,4.31-16.2,3.41-6.11-.65-10.22-3.21-11.85-4.36-1.08-.94-2.63-2.53-3.76-4.79-1.29-2.58-1.4-4.8-1.44-6.09-.3-8.27.13-20.02.17-20.86.38,3.66,1.08,7.29,1.94,10.86.42,1.79.84,3.59,1.54,5.28.68,1.69,1.85,3.14,3.32,4.19,2.96,2.16,6.77,2.65,10.37,2.72,1.81,0,3.62-.27,5.38-.75,1.75-.49,3.44-1.18,5.06-2.01,1.62-.82,3.17-1.8,4.77-2.74,1.59-.95,3.18-1.85,4.79-2.77,3.22-1.81,6.45-3.58,9.68-5.34,6.46-3.54,12.89-7.11,19.05-11.12,6.21-3.96,12.47-7.84,18.71-11.76l9.36-5.87c3.12-1.95,6.25-3.94,9.6-5.55,3.33-1.61,6.94-2.81,10.67-3.05,3.7-.25,7.57.49,10.7,2.58,3.13,2.06,5.48,5.11,7.05,8.44,1.57,3.34,2.43,7.01,2.51,10.68Z"/>
    <path class="cls-3" d="M137.74,37.93c-.15-3.67-1.08-7.3-2.71-10.58-1.63-3.27-4.01-6.23-7.1-8.17-3.06-1.99-6.81-2.67-10.42-2.38-3.64.27-7.14,1.48-10.41,3.1-3.27,1.62-6.36,3.63-9.48,5.58l-9.34,5.91-18.66,11.82c-6.2,4.01-12.67,7.57-19.15,11.08-3.23,1.76-6.47,3.5-9.68,5.3-1.6.9-3.21,1.81-4.79,2.73-1.59.91-3.17,1.89-4.84,2.71-1.67.82-3.41,1.51-5.21,2.01-1.81.47-3.67.73-5.54.71-1.87-.04-3.71-.22-5.54-.65-1.81-.44-3.59-1.14-5.09-2.29-.73-.57-1.43-1.22-2-1.97-.56-.75-1.02-1.59-1.35-2.46-.68-1.73-1.07-3.55-1.46-5.34-.79-3.6-1.43-7.24-1.73-10.91.38,3.66,1.08,7.29,1.94,10.86.42,1.79.84,3.59,1.54,5.28.68,1.69,1.85,3.14,3.32,4.19,2.96,2.16,6.77,2.65,10.37,2.72,1.81,0,3.62-.27,5.38-.75,1.75-.49,3.44-1.18,5.06-2.01,1.62-.82,3.17-1.8,4.77-2.74,1.59-.95,3.18-1.85,4.79-2.77,3.22-1.81,6.45-3.58,9.68-5.34,6.46-3.54,12.89-7.11,19.05-11.12,6.21-3.96,12.47-7.84,18.71-11.76l9.36-5.87c3.12-1.95,6.25-3.94,9.6-5.55,3.33-1.61,6.94-2.81,10.67-3.05,3.7-.25,7.57.49,10.7,2.58,3.13,2.06,5.48,5.11,7.05,8.44,1.57,3.34,2.43,7.01,2.51,10.68Z"/>
  </g>
</svg>