<?xml version="1.0" encoding="UTF-8"?>
<svg id="Nova-logo-4" xmlns="http://www.w3.org/2000/svg" xmlns:xlink="http://www.w3.org/1999/xlink" viewBox="0 0 710.81 194.04">
  <defs>
    <style>
      .cls-1 {
        fill: url(#linear-gradient-2);
      }

      .cls-2 {
        fill: #e64f0e;
      }

      .cls-3 {
        fill: none;
        stroke: #3668cb;
        stroke-miterlimit: 10;
      }

      .cls-4 {
        fill: #211955;
      }

      .cls-5 {
        fill: url(#linear-gradient);
      }
    </style>
    <linearGradient id="linear-gradient" x1="56.48" y1="67.7" x2="174.44" y2="67.7" gradientUnits="userSpaceOnUse">
      <stop offset="0" stop-color="#36aee4"/>
      <stop offset=".28" stop-color="#3668cb"/>
      <stop offset=".72" stop-color="#543aa3"/>
    </linearGradient>
    <linearGradient id="linear-gradient-2" x1="39.71" y1="100.09" x2="181.59" y2="100.09" gradientUnits="userSpaceOnUse">
      <stop offset="0" stop-color="#36aee4"/>
      <stop offset=".33" stop-color="#3668cb"/>
      <stop offset=".43" stop-color="#3e5abf"/>
      <stop offset=".65" stop-color="#4e42aa"/>
      <stop offset=".78" stop-color="#543aa3"/>
      <stop offset="1" stop-color="#360f8a"/>
    </linearGradient>
  </defs>
  <g id="logo-fill">
    <path id="n-path-1-fill" class="cls-5" d="M87.11,50.98l-11.98,1.07.05,64.2-34.08.11-.18-37.57.33-59.74,60.67.04,32.2,32.09-.04,31.86-31.18-29.64c-3.84-3.65-11.08-2.85-15.79-2.43Z"/>
    <path id="n-path-2-fill" class="cls-1" d="M134.85,148.71l-30.92-33.49c-3.88-9-.98-20.59-.16-29.92l30.06,29.79c9.73.84,19.05,1.39,28.77.89l-.24-64.35,34.46-.18-.49,48.86-.35,48.36-61.13.04Z"/>
    <path id="o-fill" class="cls-4" d="M239.94,95.85c-14.07-.34-26.05-6.56-31.6-19.58-5.38-12.6-5.78-28.19,1.11-40.74,11.3-20.57,40.12-24.75,57.55-9.55,9.86,8.6,12.32,21.32,11.76,33.6-.99,21.5-16.66,36.8-38.81,36.27ZM253.94,70.95c7.54-16.09,1.48-36.6-11.59-37.03-4.62-.15-9.99,2.11-12.58,6.68-5.11,9-5.17,20.21-1.17,29.67,2.36,5.58,7.4,8.59,12.67,8.63,4.99.04,10.06-2.4,12.66-7.95Z"/>
    <polygon id="v-fill" class="cls-4" points="332.5 18.19 354.74 18.24 329.62 94.29 304.88 94.44 280.93 18.2 303.87 18.33 317.94 70.54 332.5 18.19"/>
    <path id="a-fill" class="cls-4" d="M394.48,77.14l-19.32.32-4.17,16.81-21.97.18,22.92-76.32,27.23-.06,22.79,76.42-22.88-.05-4.6-17.31ZM391.29,60.89l-6.99-23.86-6.23,24.07c5.33.69,8.49.92,13.22-.21Z"/>
    <polygon id="t-fill" class="cls-4" points="455.67 94.28 435.34 94.44 435.14 36.2 416.1 36.1 415.97 18.1 475.24 18.19 475.23 35.97 455.77 36.17 455.67 94.28"/>
    <path id="e-ovatech-fill" class="cls-4" d="M532.15,63.76l-27.35.1c-.63,5.01-.59,8.62.11,13.59l30.83.17-.04,16.65-51.78.17-.03-76.31h49.8s.03,16.98.03,16.98l-28.92-.14c-.66,4.38-.65,7.6,0,11.85l27.37.12-.03,16.82Z"/>
    <path id="c-ovatech-fill" class="cls-4" d="M571.86,73.15c8.33,7.7,19.03,6.15,28.86,2.7l3.05,16.5c-6.94,3.52-14.61,3.06-22.45,3.24-22.21.51-38.5-16.25-38.01-38.31.35-15.61,7.59-29.73,22.13-36.15,12.6-5.56,26.58-5.66,39.5-.75l-4.67,17c-8.84-3.87-20.52-5.2-28.43,2.09-9.05,8.35-9.28,25.08.02,33.69Z"/>
    <polygon id="h-fill" class="cls-4" points="679.66 94.58 658.6 94.43 658.67 65.13 635.1 65.31 634.87 94.54 613.81 94.45 613.78 18.26 634.84 18.03 635.13 45.91 658.3 45.82 659 18.12 679.82 18.05 679.66 94.58"/>
    <path id="s-science-fill" class="cls-2" d="M463.71,142.72c.09-1.14,4.07-8.91,4.83-10.8.28-.19.66-.09.66.38-1.89,4.17-2.37,8.72-.38,13.64,13.07-12.13,26.91-23.02,31.26-26.91-.76-9.28,7.58-19.04,18-19.04,1.61,0,3.03.57,3.03,2.37,0,.57-.47,1.71-1.14,2.27-3.51,3.03-9,7.2-16.3,12.6,1.23,5.59,2.56,12.22,2.56,17.72,0,14.68-11.18,21.98-22.07,21.98-7.96,0-13.83-2.56-17.62-7.39-8.05,7.58-16.39,19.52-16.39,30.13,0,2.94,1.8,5.49,4.26,5.21.47-.09.76.95.09,1.04-3.79.38-6.44-5.68-6.44-9.85,0-8.53,4.93-15.54,17.91-27.38-1.71-2.37-2.37-4.83-2.27-5.97ZM469.2,146.79c3.6,6.92,9.66,9.09,16.58,9,7.2-.09,16.77-4.17,16.77-16.2,0-5.49-2.27-17.62-2.27-19.52-6.35,5.12-18.28,14.87-31.07,26.72ZM514.58,102.64c-6.44,0-12.79,3.32-10.99,13.55,4.83-3.51,12.88-9.19,13.74-11.94,0-1.04-.38-1.61-2.75-1.61Z"/>
    <path id="c1-science-fill" class="cls-2" d="M533.81,151.44c-2.37,1.42-4.55,1.99-6.25,1.99-2.84,0-4.64-1.71-4.64-4.55,0-1.33.85-3.88,1.8-5.78,3.69-7.29,7.48-8.91,14.02-10.99.19-.09.66-.19.85-.19.76,0,1.99,1.8,1.99,2.56s-1.14,2.37-1.71,2.75c-.76-1.99-1.8-3.41-3.51-3.41-3.6,0-9.85,8.62-9.85,14.87,0,1.99.76,3.32,2.56,3.32,1.71,0,3.32-.66,5.68-1.99,2.46-1.42,8.34-6.06,10.71-8.15.57-.57.76.09.28.57-1.89,1.71-7.96,6.63-11.94,9Z"/>
    <path id="i-science-fill" class="cls-2" d="M549.35,153.52c-1.52,0-2.46-.76-2.46-2.27,0-1.04.76-3.03,1.71-4.93,1.52-3.22,4.74-8.24,6.16-10.33.47-.66,2.08-3.6,2.84-3.6s1.04,1.52,1.04,2.08c0,.19-.09.47-.38.76-4.07,4.93-7.77,12.13-7.77,14.4,0,1.23.66,1.89,1.71,1.89,3.22,0,10.89-5.02,16.58-12.41.19-.09.85-.38.57.57-8.91,10.52-16.96,13.83-19.99,13.83ZM563.85,123.68c-.76,0-1.04-.38-1.04-1.04,0-1.52,1.23-3.22,2.84-3.22.66,0,1.04.47,1.04,1.14,0,1.33-1.42,3.13-2.84,3.13Z"/>
    <path id="e1-science-fill" class="cls-2" d="M593.97,143.19c-6.82,6.44-14.68,10.23-18.95,10.23-3.79.09-6.25-1.14-6.25-4.07,0-.76.28-2.18.66-3.22,2.37-6.16,9.47-14.12,14.87-14.12,1.52,0,2.94.28,2.94,1.99,0,3.79-8.24,7.96-13.93,10.42-.57,1.33-.95,2.94-.95,3.98,0,2.27,2.37,3.32,4.93,3.32,4.93,0,11.84-4.93,16.3-9,.28-.28.57.19.38.47ZM582.7,133.15c-2.94,0-7.39,5.97-9,10.33,2.18-.85,4.74-1.99,6.54-3.32,2.37-1.71,3.98-3.13,3.98-5.31,0-.85-.47-1.71-1.52-1.71Z"/>
    <path id="n-science-fill" class="cls-2" d="M609.51,156.27c-3.41,0-5.12-.76-5.12-4.26,0-2.94,3.41-9.28,6.44-15.63.47-1.33-.09-1.61-.95-1.04-4.64,3.13-10.23,9.66-13.93,16.2-.57,1.04-2.27,1.89-3.13,1.89-.28,0-.47-.19-.47-.47.66-1.23,2.27-4.26,3.79-7.2,1.8-3.22,4.36-8.62,5.21-10.99.38-1.04,1.23-1.52,3.13-2.46.38-.19.66-.28.85-.28s.28.19.28.38c0,.76-1.52,3.13-5.68,11.94,4.45-5.68,11.65-12.32,14.02-12.32.38,0,1.42,1.04,1.42,1.61,0,1.52-7.3,10.33-7.3,17.43,0,2.65.85,4.07,3.69,4.07,3.32,0,7.86-2.84,10.04-5.4.47-.57.76.19.47.47-3.13,3.41-8.81,6.06-12.79,6.06Z"/>
    <path id="c2-science-fill" class="cls-2" d="M636.7,151.44c-2.37,1.42-4.55,1.99-6.25,1.99-2.84,0-4.64-1.71-4.64-4.55,0-1.33.85-3.88,1.8-5.78,3.69-7.29,7.48-8.91,14.02-10.99.19-.09.66-.19.85-.19.76,0,1.99,1.8,1.99,2.56s-1.14,2.37-1.71,2.75c-.76-1.99-1.8-3.41-3.51-3.41-3.6,0-9.85,8.62-9.85,14.87,0,1.99.76,3.32,2.56,3.32,1.71,0,3.32-.66,5.68-1.99,2.46-1.42,8.34-6.06,10.71-8.15.57-.57.76.09.28.57-1.89,1.71-7.96,6.63-11.94,9Z"/>
    <path id="e2-science-fill" class="cls-2" d="M674.78,143.19c-6.82,6.44-14.68,10.23-18.95,10.23-3.79.09-6.25-1.14-6.25-4.07,0-.76.28-2.18.66-3.22,2.37-6.16,9.47-14.12,14.87-14.12,1.52,0,2.94.28,2.94,1.99,0,3.79-8.24,7.96-13.93,10.42-.57,1.33-.95,2.94-.95,3.98,0,2.27,2.37,3.32,4.93,3.32,4.93,0,11.84-4.93,16.3-9,.28-.28.57.19.38.47ZM663.51,133.15c-2.94,0-7.39,5.97-9,10.33,2.18-.85,4.74-1.99,6.54-3.32,2.37-1.71,3.98-3.13,3.98-5.31,0-.85-.47-1.71-1.52-1.71Z"/>
  </g>
  <g id="logo-outline">
    <path id="n-path-1-outline" class="cls-3" d="M87.11,50.98l-11.98,1.07.05,64.2-34.08.11-.18-37.57.33-59.74,60.67.04,32.2,32.09-.04,31.86-31.18-29.64c-3.84-3.65-11.08-2.85-15.79-2.43Z"/>
    <path id="n-path-2-outline" class="cls-3" d="M134.85,148.71l-30.92-33.49c-3.88-9-.98-20.59-.16-29.92l30.06,29.79c9.73.84,19.05,1.39,28.77.89l-.24-64.35,34.46-.18-.49,48.86-.35,48.36-61.13.04Z"/>
    <path id="o-outline" class="cls-3" d="M239.94,95.85c-14.07-.34-26.05-6.56-31.6-19.58-5.38-12.6-5.78-28.19,1.11-40.74,11.3-20.57,40.12-24.75,57.55-9.55,9.86,8.6,12.32,21.32,11.76,33.6-.99,21.5-16.66,36.8-38.81,36.27ZM253.94,70.95c7.54-16.09,1.48-36.6-11.59-37.03-4.62-.15-9.99,2.11-12.58,6.68-5.11,9-5.17,20.21-1.17,29.67,2.36,5.58,7.4,8.59,12.67,8.63,4.99.04,10.06-2.4,12.66-7.95Z"/>
    <polygon id="v-outline" class="cls-3" points="332.5 18.19 354.74 18.24 329.62 94.29 304.88 94.44 280.93 18.2 303.87 18.33 317.94 70.54 332.5 18.19"/>
    <path id="a-outline" class="cls-3" d="M394.48,77.14l-19.32.32-4.17,16.81-21.97.18,22.92-76.32,27.23-.06,22.79,76.42-22.88-.05-4.6-17.31ZM391.29,60.89l-6.99-23.86-6.23,24.07c5.33.69,8.49.92,13.22-.21Z"/>
    <polygon id="t-outline" class="cls-3" points="455.67 94.28 435.34 94.44 435.14 36.2 416.1 36.1 415.97 18.1 475.24 18.19 475.23 35.97 455.77 36.17 455.67 94.28"/>
    <path id="e-outline" class="cls-3" d="M532.15,63.76l-27.35.1c-.63,5.01-.59,8.62.11,13.59l30.83.17-.04,16.65-51.78.17-.03-76.31h49.8s.03,16.98.03,16.98l-28.92-.14c-.66,4.38-.65,7.6,0,11.85l27.37.12-.03,16.82Z"/>
    <path id="c-outline" class="cls-3" d="M571.86,73.15c8.33,7.7,19.03,6.15,28.86,2.7l3.05,16.5c-6.94,3.52-14.61,3.06-22.45,3.24-22.21.51-38.5-16.25-38.01-38.31.35-15.61,7.59-29.73,22.13-36.15,12.6-5.56,26.58-5.66,39.5-.75l-4.67,17c-8.84-3.87-20.52-5.2-28.43,2.09-9.05,8.35-9.28,25.08.02,33.69Z"/>
    <polygon id="h-outline" class="cls-3" points="679.66 94.58 658.6 94.43 658.67 65.13 635.1 65.31 634.87 94.54 613.81 94.45 613.78 18.26 634.84 18.03 635.13 45.91 658.3 45.82 659 18.12 679.82 18.05 679.66 94.58"/>
  </g>
</svg>