<?xml version="1.0" encoding="UTF-8"?>
<svg id="Nova-logo-4" xmlns="http://www.w3.org/2000/svg" xmlns:xlink="http://www.w3.org/1999/xlink" viewBox="0 0 710.81 224.6">
  <defs>
    <style>
      .cls-1 {
        fill: url(#linear-gradient-2);
      }

      .cls-2 {
        fill: none;
        stroke: #3668cb;
      }

      .cls-2, .cls-3 {
        stroke-miterlimit: 10;
      }

      .cls-4 {
        fill: #211955;
      }

      .cls-3 {
        fill: #e64f0e;
        stroke: #e64f0e;
      }

      .cls-5 {
        fill: url(#linear-gradient);
      }
    </style>
    <linearGradient id="linear-gradient" x1="56.48" y1="67.7" x2="174.44" y2="67.7" gradientUnits="userSpaceOnUse">
      <stop offset="0" stop-color="#36aee4"/>
      <stop offset=".28" stop-color="#3668cb"/>
      <stop offset=".72" stop-color="#543aa3"/>
    </linearGradient>
    <linearGradient id="linear-gradient-2" x1="39.71" y1="100.09" x2="181.59" y2="100.09" gradientUnits="userSpaceOnUse">
      <stop offset="0" stop-color="#36aee4"/>
      <stop offset=".33" stop-color="#3668cb"/>
      <stop offset=".43" stop-color="#3e5abf"/>
      <stop offset=".65" stop-color="#4e42aa"/>
      <stop offset=".78" stop-color="#543aa3"/>
      <stop offset="1" stop-color="#360f8a"/>
    </linearGradient>
  </defs>
  <g id="logo-outline">
    <path id="n-path-1-outline" class="cls-2" d="M87.11,50.98l-11.98,1.07.05,64.2-34.08.11-.18-37.57.33-59.74,60.67.04,32.2,32.09-.04,31.86-31.18-29.64c-3.84-3.65-11.08-2.85-15.79-2.43Z"/>
    <path id="n-path-2-outline" class="cls-2" d="M134.85,148.71l-30.92-33.49c-3.88-9-.98-20.59-.16-29.92l30.06,29.79c9.73.84,19.05,1.39,28.77.89l-.24-64.35,34.46-.18-.49,48.86-.35,48.36-61.13.04Z"/>
    <path id="o-outline" class="cls-2" d="M239.94,95.85c-14.07-.34-26.05-6.56-31.6-19.58-5.38-12.6-5.78-28.19,1.11-40.74,11.3-20.57,40.12-24.75,57.55-9.55,9.86,8.6,12.32,21.32,11.76,33.6-.99,21.5-16.66,36.8-38.81,36.27ZM253.94,70.95c7.54-16.09,1.48-36.6-11.59-37.03-4.62-.15-9.99,2.11-12.58,6.68-5.11,9-5.17,20.21-1.17,29.67,2.36,5.58,7.4,8.59,12.67,8.63,4.99.04,10.06-2.4,12.66-7.95Z"/>
    <polygon id="v-outline" class="cls-2" points="332.5 18.19 354.74 18.24 329.62 94.29 304.88 94.44 280.93 18.2 303.87 18.33 317.94 70.54 332.5 18.19"/>
    <path id="a-outline" class="cls-2" d="M394.48,77.14l-19.32.32-4.17,16.81-21.97.18,22.92-76.32,27.23-.06,22.79,76.42-22.88-.05-4.6-17.31ZM391.29,60.89l-6.99-23.86-6.23,24.07c5.33.69,8.49.92,13.22-.21Z"/>
    <polygon id="t-outline" class="cls-2" points="455.67 94.28 435.34 94.44 435.14 36.2 416.1 36.1 415.97 18.1 475.24 18.19 475.23 35.97 455.77 36.17 455.67 94.28"/>
    <path id="e-outline" class="cls-2" d="M532.15,63.76l-27.35.1c-.63,5.01-.59,8.62.11,13.59l30.83.17-.04,16.65-51.78.17-.03-76.31h49.8s.03,16.98.03,16.98l-28.92-.14c-.66,4.38-.65,7.6,0,11.85l27.37.12-.03,16.82Z"/>
    <path id="c-outline" class="cls-2" d="M571.86,73.15c8.33,7.7,19.03,6.15,28.86,2.7l3.05,16.5c-6.94,3.52-14.61,3.06-22.45,3.24-22.21.51-38.5-16.25-38.01-38.31.35-15.61,7.59-29.73,22.13-36.15,12.6-5.56,26.58-5.66,39.5-.75l-4.67,17c-8.84-3.87-20.52-5.2-28.43,2.09-9.05,8.35-9.28,25.08.02,33.69Z"/>
    <polygon id="h-outline" class="cls-2" points="679.66 94.58 658.6 94.43 658.67 65.13 635.1 65.31 634.87 94.54 613.81 94.45 613.78 18.26 634.84 18.03 635.13 45.91 658.3 45.82 659 18.12 679.82 18.05 679.66 94.58"/>
  </g>
  <g id="logo-fill">
    <path id="n-path-1-fill" class="cls-5" d="M87.11,50.98l-11.98,1.07.05,64.2-34.08.11-.18-37.57.33-59.74,60.67.04,32.2,32.09-.04,31.86-31.18-29.64c-3.84-3.65-11.08-2.85-15.79-2.43Z"/>
    <path id="n-path-2-fill" class="cls-1" d="M134.85,148.71l-30.92-33.49c-3.88-9-.98-20.59-.16-29.92l30.06,29.79c9.73.84,19.05,1.39,28.77.89l-.24-64.35,34.46-.18-.49,48.86-.35,48.36-61.13.04Z"/>
    <path id="o-fill" class="cls-4" d="M239.94,95.85c-14.07-.34-26.05-6.56-31.6-19.58-5.38-12.6-5.78-28.19,1.11-40.74,11.3-20.57,40.12-24.75,57.55-9.55,9.86,8.6,12.32,21.32,11.76,33.6-.99,21.5-16.66,36.8-38.81,36.27ZM253.94,70.95c7.54-16.09,1.48-36.6-11.59-37.03-4.62-.15-9.99,2.11-12.58,6.68-5.11,9-5.17,20.21-1.17,29.67,2.36,5.58,7.4,8.59,12.67,8.63,4.99.04,10.06-2.4,12.66-7.95Z"/>
    <polygon id="v-fill" class="cls-4" points="332.5 18.19 354.74 18.24 329.62 94.29 304.88 94.44 280.93 18.2 303.87 18.33 317.94 70.54 332.5 18.19"/>
    <path id="a-fill" class="cls-4" d="M394.48,77.14l-19.32.32-4.17,16.81-21.97.18,22.92-76.32,27.23-.06,22.79,76.42-22.88-.05-4.6-17.31ZM391.29,60.89l-6.99-23.86-6.23,24.07c5.33.69,8.49.92,13.22-.21Z"/>
    <polygon id="t-fill" class="cls-4" points="455.67 94.28 435.34 94.44 435.14 36.2 416.1 36.1 415.97 18.1 475.24 18.19 475.23 35.97 455.77 36.17 455.67 94.28"/>
    <path id="e-ovatech-fill" class="cls-4" d="M532.15,63.76l-27.35.1c-.63,5.01-.59,8.62.11,13.59l30.83.17-.04,16.65-51.78.17-.03-76.31h49.8s.03,16.98.03,16.98l-28.92-.14c-.66,4.38-.65,7.6,0,11.85l27.37.12-.03,16.82Z"/>
    <path id="c-ovatech-fill" class="cls-4" d="M571.86,73.15c8.33,7.7,19.03,6.15,28.86,2.7l3.05,16.5c-6.94,3.52-14.61,3.06-22.45,3.24-22.21.51-38.5-16.25-38.01-38.31.35-15.61,7.59-29.73,22.13-36.15,12.6-5.56,26.58-5.66,39.5-.75l-4.67,17c-8.84-3.87-20.52-5.2-28.43,2.09-9.05,8.35-9.28,25.08.02,33.69Z"/>
    <polygon id="h-fill" class="cls-4" points="679.66 94.58 658.6 94.43 658.67 65.13 635.1 65.31 634.87 94.54 613.81 94.45 613.78 18.26 634.84 18.03 635.13 45.91 658.3 45.82 659 18.12 679.82 18.05 679.66 94.58"/>
    <path id="s-science-fill" class="cls-3" d="M456.08,158.85c.12-1.38,4.95-10.82,5.87-13.12.35-.23.81-.11.81.46-2.3,5.06-2.88,10.59-.46,16.57,15.88-14.73,32.69-27.97,37.98-32.69-.92-11.28,9.21-23.13,21.87-23.13,1.96,0,3.68.69,3.68,2.88,0,.69-.58,2.07-1.38,2.76-4.26,3.68-10.93,8.75-19.79,15.31,1.5,6.79,3.11,14.85,3.11,21.52,0,17.84-13.58,26.7-26.82,26.7-9.67,0-16.8-3.11-21.41-8.98-9.78,9.21-19.91,23.71-19.91,36.6,0,3.57,2.19,6.68,5.18,6.33.58-.11.92,1.15.12,1.27-4.6.46-7.83-6.91-7.83-11.97,0-10.36,5.98-18.88,21.75-33.26-2.07-2.88-2.88-5.87-2.76-7.25ZM462.76,163.8c4.37,8.4,11.74,11.05,20.14,10.93,8.75-.12,20.37-5.06,20.37-19.68,0-6.67-2.76-21.41-2.76-23.71-7.71,6.22-22.21,18.07-37.75,32.46ZM517.88,110.16c-7.83,0-15.54,4.03-13.35,16.46,5.87-4.26,15.65-11.16,16.69-14.5,0-1.27-.46-1.96-3.34-1.96Z"/>
    <path id="c1-science-fill" class="cls-3" d="M535.49,169.44c-2.88,1.73-5.52,2.42-7.6,2.42-3.45,0-5.64-2.07-5.64-5.52,0-1.61,1.04-4.72,2.19-7.02,4.49-8.86,9.09-10.82,17.03-13.35.23-.11.81-.23,1.04-.23.92,0,2.42,2.19,2.42,3.11s-1.38,2.88-2.07,3.34c-.92-2.42-2.19-4.14-4.26-4.14-4.37,0-11.97,10.47-11.97,18.07,0,2.42.92,4.03,3.11,4.03,2.07,0,4.03-.8,6.91-2.42,2.99-1.73,10.13-7.37,13.01-9.9.69-.69.92.11.35.69-2.3,2.07-9.67,8.06-14.5,10.93Z"/>
    <path id="i-science-fill" class="cls-3" d="M548.61,171.97c-1.84,0-2.99-.92-2.99-2.76,0-1.27.92-3.68,2.07-5.98,1.84-3.91,5.75-10.01,7.48-12.54.58-.81,2.53-4.37,3.45-4.37s1.27,1.84,1.27,2.53c0,.23-.11.58-.46.92-4.95,5.99-9.44,14.73-9.44,17.49,0,1.5.81,2.3,2.07,2.3,3.91,0,13.23-6.1,20.14-15.08.23-.11,1.04-.46.69.69-10.82,12.78-20.6,16.8-24.28,16.8ZM566.22,135.71c-.92,0-1.27-.46-1.27-1.27,0-1.84,1.5-3.91,3.45-3.91.81,0,1.27.58,1.27,1.38,0,1.61-1.73,3.8-3.45,3.8Z"/>
    <path id="e1-science-fill" class="cls-3" d="M597.06,159.42c-8.29,7.83-17.84,12.43-23.02,12.43-4.6.12-7.6-1.38-7.6-4.95,0-.92.35-2.65.81-3.91,2.88-7.48,11.51-17.15,18.07-17.15,1.84,0,3.57.35,3.57,2.42,0,4.6-10.01,9.67-16.92,12.66-.69,1.61-1.15,3.57-1.15,4.83,0,2.76,2.88,4.03,5.99,4.03,5.98,0,14.39-5.98,19.79-10.93.35-.35.69.23.46.58ZM583.36,147.22c-3.57,0-8.98,7.25-10.93,12.54,2.65-1.04,5.75-2.42,7.94-4.03,2.88-2.07,4.83-3.8,4.83-6.45,0-1.04-.58-2.07-1.84-2.07Z"/>
    <path id="n-science-fill" class="cls-3" d="M610.18,175.31c-4.14,0-6.22-.92-6.22-5.18,0-3.57,4.14-11.28,7.83-18.99.58-1.61-.11-1.96-1.15-1.27-5.64,3.8-12.43,11.74-16.92,19.68-.69,1.27-2.76,2.3-3.8,2.3-.35,0-.58-.23-.58-.58.81-1.5,2.76-5.18,4.6-8.75,2.19-3.91,5.29-10.47,6.33-13.35.46-1.27,1.5-1.84,3.8-2.99.46-.23.81-.35,1.04-.35s.35.23.35.46c0,.92-1.84,3.8-6.91,14.5,5.41-6.91,14.16-14.96,17.03-14.96.46,0,1.73,1.27,1.73,1.96,0,1.84-8.86,12.54-8.86,21.18,0,3.22,1.04,4.95,4.49,4.95,4.03,0,9.55-3.45,12.2-6.56.58-.69.92.23.58.58-3.8,4.14-10.7,7.37-15.54,7.37Z"/>
    <path id="c2-science-fill" class="cls-3" d="M637.45,169.44c-2.88,1.73-5.52,2.42-7.6,2.42-3.45,0-5.64-2.07-5.64-5.52,0-1.61,1.04-4.72,2.19-7.02,4.49-8.86,9.09-10.82,17.03-13.35.23-.11.81-.23,1.04-.23.92,0,2.42,2.19,2.42,3.11s-1.38,2.88-2.07,3.34c-.92-2.42-2.19-4.14-4.26-4.14-4.37,0-11.97,10.47-11.97,18.07,0,2.42.92,4.03,3.11,4.03,2.07,0,4.03-.8,6.91-2.42,2.99-1.73,10.13-7.37,13.01-9.9.69-.69.92.11.35.69-2.3,2.07-9.67,8.06-14.5,10.93Z"/>
    <path id="e2-science-fill" class="cls-3" d="M677.96,159.42c-8.29,7.83-17.84,12.43-23.02,12.43-4.6.12-7.6-1.38-7.6-4.95,0-.92.35-2.65.81-3.91,2.88-7.48,11.51-17.15,18.07-17.15,1.84,0,3.57.35,3.57,2.42,0,4.6-10.01,9.67-16.92,12.66-.69,1.61-1.15,3.57-1.15,4.83,0,2.76,2.88,4.03,5.99,4.03,5.98,0,14.39-5.98,19.79-10.93.35-.35.69.23.46.58ZM664.27,147.22c-3.57,0-8.98,7.25-10.93,12.54,2.65-1.04,5.75-2.42,7.94-4.03,2.88-2.07,4.83-3.8,4.83-6.45,0-1.04-.58-2.07-1.84-2.07Z"/>
  </g>
</svg>