<?xml version="1.0" encoding="UTF-8"?>
<svg id="Nova-logo-3" xmlns="http://www.w3.org/2000/svg" viewBox="0 0 710.81 194.04">
  <defs>
    <style>
      .cls-1 {
        fill: #f3f4f6;
      }
    </style>
  </defs>
  <g id="logo-fill">
    <path id="n-path-1-fill" class="cls-1" d="M84.65,67.11l-10.89.98.04,58.36-30.98.1-.16-34.15.3-54.31,55.16.04,29.28,29.18-.03,28.96-28.35-26.94c-3.49-3.32-10.07-2.59-14.36-2.21Z"/>
    <path id="n-part-2-fill" class="cls-1" d="M128.06,155.96l-28.11-30.44c-3.53-8.18-.89-18.72-.15-27.2l27.33,27.08c8.84.76,17.31,1.26,26.15.81l-.22-58.5,31.33-.16-.45,44.42-.32,43.96-55.57.03Z"/>
    <path id="o-fill" class="cls-1" d="M254.65,49.02c-17.42-15.21-46.25-11.03-57.55,9.54-6.89,12.56-6.48,28.14-1.11,40.75,5.56,13.01,17.54,19.24,31.61,19.58,22.15.52,37.82-14.78,38.81-36.28.57-12.28-1.9-24.99-11.76-33.59ZM241.6,93.99c-2.61,5.55-7.68,7.98-12.67,7.95-5.28-.04-10.31-3.05-12.67-8.63-4.01-9.46-3.95-20.67,1.17-29.67,2.59-4.57,7.96-6.83,12.58-6.68,13.06.43,19.13,20.94,11.59,37.03Z"/>
    <polygon id="v-fill" class="cls-1" points="320.16 41.22 342.39 41.27 317.28 117.33 292.53 117.48 268.59 41.24 291.53 41.36 305.6 93.57 320.16 41.22"/>
    <path id="a-fill" class="cls-1" d="M386.82,41.1l-27.23.07-22.91,76.31,21.97-.18,4.16-16.81,19.33-.32,4.59,17.31,22.88.04-22.79-76.42ZM365.73,84.13l6.23-24.07,6.99,23.86c-4.73,1.13-7.89.89-13.22.21Z"/>
    <polygon id="t-fill" class="cls-1" points="443.32 117.31 423 117.48 422.79 59.24 403.75 59.13 403.62 41.14 462.9 41.23 462.89 59 443.43 59.2 443.32 117.31"/>
    <path id="e-ovatech-fill" class="cls-1" d="M519.8,86.8l-27.35.1c-.63,5.01-.59,8.62.11,13.59l30.83.17-.04,16.65-51.78.17-.03-76.31h49.8s.03,16.98.03,16.98l-28.92-.14c-.66,4.38-.65,7.6,0,11.85l27.37.12-.03,16.82Z"/>
    <path id="c-ovatech-fill_" data-name="c-ovatech-fill
" class="cls-1" d="M559.52,96.18c8.33,7.7,19.03,6.15,28.86,2.7l3.05,16.5c-6.94,3.52-14.61,3.06-22.45,3.24-22.21.51-38.5-16.25-38.01-38.31.35-15.61,7.59-29.73,22.13-36.15,12.6-5.56,26.58-5.66,39.5-.75l-4.67,17c-8.84-3.87-20.52-5.2-28.43,2.09-9.05,8.35-9.28,25.08.02,33.69Z"/>
    <polygon id="h-fill" class="cls-1" points="667.32 117.61 646.26 117.47 646.33 88.17 622.76 88.34 622.52 117.57 601.47 117.49 601.43 41.3 622.49 41.07 622.79 68.94 645.96 68.85 646.65 41.15 667.47 41.09 667.32 117.61"/>
    <path id="s-science-fill_" data-name="s-science-fill
" class="cls-1" d="M480.79,147.64c1.64.84,4.16,1.68,6.76,1.68,2.8,0,4.28-1.16,4.28-2.92s-1.28-2.64-4.52-3.8c-4.48-1.56-7.4-4.04-7.4-7.96,0-4.6,3.84-8.12,10.2-8.12,3.04,0,5.28.64,6.88,1.36l-1.36,4.92c-1.08-.52-3-1.28-5.64-1.28s-3.92,1.2-3.92,2.6c0,1.72,1.52,2.48,5,3.8,4.76,1.76,7,4.24,7,8.04,0,4.52-3.48,8.36-10.88,8.36-3.08,0-6.12-.8-7.64-1.64l1.24-5.04Z"/>
    <path id="c1-science-fill_" data-name="c1-science-fill
" class="cls-1" d="M528.79,153.16c-1.12.56-3.64,1.16-6.92,1.16-9.32,0-14.12-5.8-14.12-13.48,0-9.2,6.56-14.32,14.72-14.32,3.16,0,5.56.64,6.64,1.2l-1.24,4.84c-1.24-.52-2.96-1-5.12-1-4.84,0-8.6,2.92-8.6,8.92,0,5.4,3.2,8.8,8.64,8.8,1.84,0,3.88-.4,5.08-.88l.92,4.76Z"/>
    <rect id="i-science-fill_" data-name="i-science-fill
" class="cls-1" x="539.59" y="126.97" width="6.12" height="26.96"/>
    <polygon id="e1-science-fill_" data-name="e1-science-fill
" class="cls-1" points="573.82 142.52 563.91 142.52 563.91 148.92 574.99 148.92 574.99 153.92 557.79 153.92 557.79 126.97 574.42 126.97 574.42 131.97 563.91 131.97 563.91 137.56 573.82 137.56 573.82 142.52"/>
    <path id="n-science-fill_" data-name="n-science-fill
" class="cls-1" d="M585.95,153.92v-26.96h7.12l5.6,9.88c1.6,2.84,3.2,6.2,4.4,9.24h.12c-.4-3.56-.52-7.2-.52-11.24v-7.88h5.6v26.96h-6.4l-5.76-10.4c-1.6-2.88-3.36-6.36-4.68-9.52l-.12.04c.16,3.56.24,7.36.24,11.76v8.12h-5.6Z"/>
    <path id="c2-science-fill_" data-name="c2-science-fill
" class="cls-1" d="M640.14,153.16c-1.12.56-3.64,1.16-6.92,1.16-9.32,0-14.12-5.8-14.12-13.48,0-9.2,6.56-14.32,14.72-14.32,3.16,0,5.56.64,6.64,1.2l-1.24,4.84c-1.24-.52-2.96-1-5.12-1-4.84,0-8.6,2.92-8.6,8.92,0,5.4,3.2,8.8,8.64,8.8,1.84,0,3.88-.4,5.08-.88l.92,4.76Z"/>
    <polygon id="e2-science-fill" class="cls-1" points="666.98 142.52 657.07 142.52 657.07 148.92 668.14 148.92 668.14 153.92 650.95 153.92 650.95 126.97 667.58 126.97 667.58 131.97 657.07 131.97 657.07 137.56 666.98 137.56 666.98 142.52"/>
  </g>
</svg>