<?xml version="1.0" encoding="UTF-8"?>
<svg id="Nova-logo-3" xmlns="http://www.w3.org/2000/svg" viewBox="0 0 710.81 194.04">
  <defs>
    <style>
      .cls-1 {
        fill: #f3f4f6;
      }

      .cls-2 {
        fill: none;
        stroke: #f3f4f6;
        stroke-miterlimit: 10;
      }
    </style>
  </defs>
  <g id="logo-outline">
    <path id="n-path-1-outline" class="cls-2" d="M74.67,67.11l-10.89.98.04,58.36-30.98.1-.16-34.15.3-54.31,55.16.04,29.28,29.18-.03,28.96-28.35-26.94c-3.49-3.32-10.07-2.59-14.36-2.21Z"/>
    <path id="n-path-2-outline" class="cls-2" d="M118.07,155.96l-28.11-30.44c-3.53-8.18-.89-18.72-.15-27.2l27.33,27.08c8.84.76,17.31,1.26,26.15.81l-.22-58.5,31.33-.16-.45,44.42-.32,43.96-55.57.03Z"/>
    <path id="o-outline" class="cls-2" d="M217.61,118.89c-14.07-.34-26.05-6.56-31.6-19.58-5.38-12.6-5.78-28.19,1.11-40.74,11.3-20.57,40.12-24.75,57.55-9.55,9.86,8.6,12.32,21.32,11.76,33.6-.99,21.5-16.66,36.8-38.81,36.27Z"/>
    <polygon id="v-outline" class="cls-2" points="310.18 41.22 332.41 41.27 307.29 117.33 282.55 117.48 258.6 41.24 281.55 41.36 295.61 93.57 310.18 41.22"/>
    <polygon id="a-outline" class="cls-2" points="372.15 100.17 352.83 100.5 348.66 117.3 326.69 117.49 349.61 41.17 376.84 41.11 399.63 117.53 376.75 117.48 372.15 100.17"/>
    <polygon id="t-outline" class="cls-2" points="433.34 117.31 413.01 117.48 412.81 59.24 393.77 59.13 393.64 41.14 452.92 41.23 452.91 59 433.44 59.2 433.34 117.31"/>
    <path id="e-outline" class="cls-2" d="M509.82,86.8l-27.35.1c-.63,5.01-.59,8.62.11,13.59l30.83.17-.04,16.65-51.78.17-.03-76.31h49.8s.03,16.98.03,16.98l-28.92-.14c-.66,4.38-.65,7.6,0,11.85l27.37.12-.03,16.82Z"/>
    <path id="c-outline" class="cls-2" d="M549.53,96.18c8.33,7.7,19.03,6.15,28.86,2.7l3.05,16.5c-6.94,3.52-14.61,3.06-22.45,3.24-22.21.51-38.5-16.25-38.01-38.31.35-15.61,7.59-29.73,22.13-36.15,12.6-5.56,26.58-5.66,39.5-.75l-4.67,17c-8.84-3.87-20.52-5.2-28.43,2.09-9.05,8.35-9.28,25.08.02,33.69Z"/>
    <polygon id="h-outline" class="cls-2" points="657.34 117.61 636.28 117.47 636.34 88.17 612.78 88.34 612.54 117.57 591.49 117.49 591.45 41.3 612.51 41.07 612.8 68.94 635.98 68.85 636.67 41.15 657.49 41.09 657.34 117.61"/>
  </g>
  <g id="logo-fill">
    <path id="n-path-1-fill" class="cls-1" d="M74.67,67.11l-10.89.98.04,58.36-30.98.1-.16-34.15.3-54.31,55.16.04,29.28,29.18-.03,28.96-28.35-26.94c-3.49-3.32-10.07-2.59-14.36-2.21Z"/>
    <path id="n-part-2-fill" class="cls-1" d="M118.07,155.96l-28.11-30.44c-3.53-8.18-.89-18.72-.15-27.2l27.33,27.08c8.84.76,17.31,1.26,26.15.81l-.22-58.5,31.33-.16-.45,44.42-.32,43.96-55.57.03Z"/>
    <path id="o-fill" class="cls-1" d="M244.67,49.02c-17.42-15.21-46.25-11.03-57.55,9.54-6.89,12.56-6.48,28.14-1.11,40.75,5.56,13.01,17.54,19.24,31.61,19.58,22.15.52,37.82-14.78,38.81-36.28.57-12.28-1.9-24.99-11.76-33.59ZM231.62,93.99c-2.61,5.55-7.68,7.98-12.67,7.95-5.28-.04-10.31-3.05-12.67-8.63-4.01-9.46-3.95-20.67,1.17-29.67,2.59-4.57,7.96-6.83,12.58-6.68,13.06.43,19.13,20.94,11.59,37.03Z"/>
    <polygon id="v-fill" class="cls-1" points="310.18 41.22 332.41 41.27 307.29 117.33 282.55 117.48 258.6 41.24 281.55 41.36 295.61 93.57 310.18 41.22"/>
    <path id="a-fill" class="cls-1" d="M376.84,41.1l-27.23.07-22.91,76.31,21.97-.18,4.16-16.81,19.33-.32,4.59,17.31,22.88.04-22.79-76.42ZM355.75,84.13l6.23-24.07,6.99,23.86c-4.73,1.13-7.89.89-13.22.21Z"/>
    <polygon id="t-fill" class="cls-1" points="433.34 117.31 413.01 117.48 412.81 59.24 393.77 59.13 393.64 41.14 452.92 41.23 452.91 59 433.44 59.2 433.34 117.31"/>
    <path id="e-ovatech-fill" class="cls-1" d="M509.82,86.8l-27.35.1c-.63,5.01-.59,8.62.11,13.59l30.83.17-.04,16.65-51.78.17-.03-76.31h49.8s.03,16.98.03,16.98l-28.92-.14c-.66,4.38-.65,7.6,0,11.85l27.37.12-.03,16.82Z"/>
    <path id="c-ovatech-fill" data-name="c-ovatech-fill
" class="cls-1" d="M549.53,96.18c8.33,7.7,19.03,6.15,28.86,2.7l3.05,16.5c-6.94,3.52-14.61,3.06-22.45,3.24-22.21.51-38.5-16.25-38.01-38.31.35-15.61,7.59-29.73,22.13-36.15,12.6-5.56,26.58-5.66,39.5-.75l-4.67,17c-8.84-3.87-20.52-5.2-28.43,2.09-9.05,8.35-9.28,25.08.02,33.69Z"/>
    <polygon id="h-fill" class="cls-1" points="657.34 117.61 636.28 117.47 636.34 88.17 612.78 88.34 612.54 117.57 591.49 117.49 591.45 41.3 612.51 41.07 612.8 68.94 635.98 68.85 636.67 41.15 657.49 41.09 657.34 117.61"/>
    <path id="s-science-fill" data-name="s-science-fill
" class="cls-1" d="M470.81,147.64c1.64.84,4.16,1.68,6.76,1.68,2.8,0,4.28-1.16,4.28-2.92s-1.28-2.64-4.52-3.8c-4.48-1.56-7.4-4.04-7.4-7.96,0-4.6,3.84-8.12,10.2-8.12,3.04,0,5.28.64,6.88,1.36l-1.36,4.92c-1.08-.52-3-1.28-5.64-1.28s-3.92,1.2-3.92,2.6c0,1.72,1.52,2.48,5,3.8,4.76,1.76,7,4.24,7,8.04,0,4.52-3.48,8.36-10.88,8.36-3.08,0-6.12-.8-7.64-1.64l1.24-5.04Z"/>
    <path id="c1-science-fill" data-name="c1-science-fill
" class="cls-1" d="M518.8,153.16c-1.12.56-3.64,1.16-6.92,1.16-9.32,0-14.12-5.8-14.12-13.48,0-9.2,6.56-14.32,14.72-14.32,3.16,0,5.56.64,6.64,1.2l-1.24,4.84c-1.24-.52-2.96-1-5.12-1-4.84,0-8.6,2.92-8.6,8.92,0,5.4,3.2,8.8,8.64,8.8,1.84,0,3.88-.4,5.08-.88l.92,4.76Z"/>
    <rect id="i-science-fill" data-name="i-science-fill
" class="cls-1" x="529.61" y="126.97" width="6.12" height="26.96"/>
    <polygon id="e1-science-fill_" data-name="e1-science-fill
" class="cls-1" points="563.84 142.52 553.92 142.52 553.92 148.92 565 148.92 565 153.92 547.81 153.92 547.81 126.97 564.44 126.97 564.44 131.97 553.92 131.97 553.92 137.56 563.84 137.56 563.84 142.52"/>
    <path id="n-science-fill" data-name="n-science-fill
" class="cls-1" d="M575.97,153.92v-26.96h7.12l5.6,9.88c1.6,2.84,3.2,6.2,4.4,9.24h.12c-.4-3.56-.52-7.2-.52-11.24v-7.88h5.6v26.96h-6.4l-5.76-10.4c-1.6-2.88-3.36-6.36-4.68-9.52l-.12.04c.16,3.56.24,7.36.24,11.76v8.12h-5.6Z"/>
    <path id="c2-science-fill" data-name="c2-science-fill
" class="cls-1" d="M630.16,153.16c-1.12.56-3.64,1.16-6.92,1.16-9.32,0-14.12-5.8-14.12-13.48,0-9.2,6.56-14.32,14.72-14.32,3.16,0,5.56.64,6.64,1.2l-1.24,4.84c-1.24-.52-2.96-1-5.12-1-4.84,0-8.6,2.92-8.6,8.92,0,5.4,3.2,8.8,8.64,8.8,1.84,0,3.88-.4,5.08-.88l.92,4.76Z"/>
    <polygon id="e2-science-fill" class="cls-1" points="657 142.52 647.08 142.52 647.08 148.92 658.16 148.92 658.16 153.92 640.96 153.92 640.96 126.97 657.6 126.97 657.6 131.97 647.08 131.97 647.08 137.56 657 137.56 657 142.52"/>
  </g>
</svg>