<?xml version="1.0" encoding="UTF-8"?>
<svg id="nova-logo" xmlns="http://www.w3.org/2000/svg" viewBox="0 0 763.91 140.94">
  <defs>
    <style>
      .cls-1 {
        fill: #fff;
      }

      .cls-2 {
        fill: none;
        stroke: #fff;
        stroke-miterlimit: 10;
      }
    </style>
  </defs>
  <g id="logo-outline">
    <path id="n-path-1-outline" class="cls-2" d="M122.86,89.05l-20.14-.06-.21-57.34,37.12.16,18.92,18.5-.09,18.49-18.19-17.14c-3.7-3.49-11.75-1.38-17.46-1l.05,38.39Z"/>
    <path id="n-path-2-outline" class="cls-2" d="M196.36,107.38l-36.99.22-18.26-19.1c-2.62-4.99-.85-13.16-.66-18.23l18.36,18.08,17.44.46-.17-38.21,20.44-.13-.16,56.91Z"/>
    <path id="o-outline" class="cls-2" d="M247.95,31.42c-23.17,0-37.59,17.47-37.59,39.49s12.87,38.6,36.32,38.6,37.95-15.48,37.95-39.8c0-20.25-12.37-38.29-36.68-38.29ZM247.67,93.46c-9.68,0-15.88-8.69-15.88-22.91s6.2-23.09,15.76-23.09,15.66,9.88,15.66,22.89-5.7,23.11-15.54,23.11Z"/>
    <path id="v-outline" class="cls-2" d="M339.7,32.65l-8.22,30.07c-2.22,8.14-4.37,16.89-6.2,26.12h-.22c-1.83-9.71-3.9-17.98-6.29-26.45l-8.02-29.74h-22.24l24.04,75.62h23.95l24.74-75.62h-21.54Z"/>
    <path id="a-outline" class="cls-2" d="M407.16,32.65h-26.98l-21.94,75.62h20.96l4.26-17.53h19.55l4.83,17.53h21.87l-22.55-75.62ZM386.15,75.79l3.26-13.52c1.09-4.29,2.21-10.52,3.33-14.98h.23c1.18,4.46,2.61,10.64,3.76,14.9l3.5,13.6h-14.08Z"/>
    <path id="t-outline" class="cls-2" d="M425.14,32.65v17h19.27v8.98h20.26v-8.98h19.63v-17h-59.16ZM444.41,108.27h20.26v-23.85h-20.26v23.85Z"/>
    <path id="e-outline" class="cls-2" d="M513.95,91.73v-7.31h-20.25v23.85h50.63v-16.54h-30.38ZM513.95,49.2h28.81v-16.55h-49.06v25.98h20.25v-9.43Z"/>
    <path id="c-outline" class="cls-2" d="M595.52,48.05c6.03,0,10.71,1.35,13.99,2.72l3.96-15.93c-3.14-1.74-10.21-3.37-18.91-3.37-18.51,0-35,9.13-40.31,27.16h22.12c3.71-7.25,11.05-10.58,19.15-10.58ZM595.88,92.65c-8.19,0-14.4-2.97-18.11-8.23h-23.48c4.38,14.29,16.8,25.03,38.9,25.03,9.06,0,16.19-1.71,19.05-3.11l-2.81-15.85c-3.14,1.21-8.64,2.16-13.55,2.16Z"/>
    <path id="h-outline" class="cls-2" d="M668,32.65v27.97h-24.57v-27.97h-20.25v75.62h20.25v-29.98h24.57v29.98h20.25V32.65h-20.25Z"/>
  </g>
  <g id="logo-fill">
    <path id="n-path-1-fill" class="cls-1" d="M122.86,89.05l-20.14-.06-.21-57.34,37.12.16,18.92,18.5-.09,18.49-18.19-17.14c-3.7-3.49-11.75-1.38-17.46-1l.05,38.39Z"/>
    <path id="n-part-2-fill" class="cls-1" d="M196.36,107.38l-36.99.22-18.26-19.1c-2.62-4.99-.85-13.16-.66-18.23l18.36,18.08,17.44.46-.17-38.21,20.44-.13-.16,56.91Z"/>
    <path id="o-fill" class="cls-1" d="M247.95,31.42c-23.17,0-37.59,17.47-37.59,39.49s12.87,38.6,36.32,38.6,37.95-15.48,37.95-39.8c0-20.25-12.37-38.29-36.68-38.29ZM247.67,93.46c-9.68,0-15.88-8.69-15.88-22.91s6.2-23.09,15.76-23.09,15.66,9.88,15.66,22.89-5.7,23.11-15.54,23.11Z"/>
    <path id="v-fill" class="cls-1" d="M339.7,32.65l-8.22,30.07c-2.22,8.14-4.37,16.89-6.2,26.12h-.22c-1.83-9.71-3.9-17.98-6.29-26.45l-8.02-29.74h-22.24l24.04,75.62h23.95l24.74-75.62h-21.54Z"/>
    <path id="a-fill" class="cls-1" d="M407.16,32.65h-26.98l-21.94,75.62h20.96l4.26-17.53h19.55l4.83,17.53h21.87l-22.55-75.62ZM386.15,75.79l3.26-13.52c1.09-4.29,2.21-10.52,3.33-14.98h.23c1.18,4.46,2.61,10.64,3.76,14.9l3.5,13.6h-14.08Z"/>
    <path id="t-fill" class="cls-1" d="M425.14,32.65v17h19.27v8.98h20.26v-8.98h19.63v-17h-59.16ZM444.41,108.27h20.26v-23.85h-20.26v23.85Z"/>
    <path id="e-ovatech-fill" class="cls-1" d="M513.95,91.73v-7.31h-20.25v23.85h50.63v-16.54h-30.38ZM513.95,49.2h28.81v-16.55h-49.06v25.98h20.25v-9.43Z"/>
    <path id="c-ovatech-fill_" data-name="c-ovatech-fill
" class="cls-1" d="M595.52,48.05c6.03,0,10.71,1.35,13.99,2.72l3.96-15.93c-3.14-1.74-10.21-3.37-18.91-3.37-18.51,0-35,9.13-40.31,27.16h22.12c3.71-7.25,11.05-10.58,19.15-10.58ZM595.88,92.65c-8.19,0-14.4-2.97-18.11-8.23h-23.48c4.38,14.29,16.8,25.03,38.9,25.03,9.06,0,16.19-1.71,19.05-3.11l-2.81-15.85c-3.14,1.21-8.64,2.16-13.55,2.16Z"/>
    <path id="h-fill" class="cls-1" d="M668,32.65v27.97h-24.57v-27.97h-20.25v75.62h20.25v-29.98h24.57v29.98h20.25V32.65h-20.25Z"/>
    <path id="s-science-fill_" data-name="s-science-fill
" class="cls-1" d="M438.06,79.01c1.28.87,2.96,1.45,4.84,1.45,3.16,0,5.08-1.68,5.08-4.09,0-2.23-1.13-3.51-4.41-4.55-3.92-1.25-5.48-2.84-5.48-5.4,0-2.87,2.47-5.02,6.06-5.02,2.06,0,3.6.49,4.35.99l-.55,1.19c-.55-.38-1.94-1.01-3.86-1.01-3.51,0-4.61,2.12-4.61,3.65,0,2.09,1.25,3.28,4.41,4.29,3.57,1.16,5.48,2.55,5.48,5.71,0,2.7-1.97,5.42-6.64,5.42-1.86,0-4.03-.58-5.22-1.45l.55-1.19Z"/>
    <path id="c1-science-fill_" data-name="c1-science-fill
" class="cls-1" d="M474.17,80.52c-1.1.55-3.31,1.13-6.12,1.13-5.28,0-10.33-3.22-10.33-10.04,0-5.11,3.77-10.21,11.11-10.21,2.96,0,4.61.67,5.28.99l-.46,1.19c-1.16-.58-2.9-.99-4.73-.99-6.35,0-9.72,3.86-9.72,9.14,0,4.82,3.22,8.7,9.37,8.7,1.91,0,3.83-.38,5.16-1.04l.43,1.13Z"/>
    <path id="i-science-fill_" data-name="i-science-fill
" class="cls-1" d="M484.96,61.75v19.55h-1.42v-19.55h1.42Z"/>
    <path id="e1-science-fill_" data-name="e1-science-fill
" class="cls-1" d="M505.98,71.59h-8.7v8.53h9.69v1.19h-11.11v-19.55h10.62v1.19h-9.2v7.46h8.7v1.19Z"/>
    <path id="n-science-fill_" data-name="n-science-fill
" class="cls-1" d="M516.48,81.3v-19.55h1.33l8.85,12.04c1.8,2.44,2.96,3.97,3.97,5.71l.06-.06c-.2-2.26-.23-4.58-.23-7.6v-10.09h1.39v19.55h-1.31l-8.56-11.63c-1.65-2.26-3.16-4.32-4.21-6.06l-.09.06c.15,2.2.17,4.29.17,7.19v10.44h-1.39Z"/>
    <path id="c2-science-fill_" data-name="c2-science-fill
" class="cls-1" d="M557.75,80.52c-1.1.55-3.31,1.13-6.12,1.13-5.28,0-10.33-3.22-10.33-10.04,0-5.11,3.77-10.21,11.11-10.21,2.96,0,4.61.67,5.28.99l-.46,1.19c-1.16-.58-2.9-.99-4.73-.99-6.35,0-9.72,3.86-9.72,9.14,0,4.82,3.22,8.7,9.37,8.7,1.91,0,3.83-.38,5.16-1.04l.43,1.13Z"/>
    <path id="e2-science-fill" class="cls-1" d="M577.24,71.59h-8.7v8.53h9.69v1.19h-11.11v-19.55h10.62v1.19h-9.2v7.46h8.7v1.19Z"/>
  </g>
</svg>